<svg width="965" height="705" viewBox="0 0 965 705" fill="none" xmlns="http://www.w3.org/2000/svg">
<path fill-rule="evenodd" clip-rule="evenodd" d="M562.507 341.124C567.671 339.26 574.392 339.919 576.36 345.044C579.784 353.96 581.3 363.674 580.477 373.706C577.388 411.353 542.515 439.217 502.586 435.941C462.657 432.664 432.792 399.489 435.881 361.842C438.97 324.194 473.843 296.331 513.772 299.607C517.794 299.937 521.713 300.57 525.507 301.481C530.816 302.755 532.486 309.239 531.467 314.603C531.313 315.417 531.2 316.248 531.13 317.092C530.069 330.024 539.692 341.368 552.624 342.429C556.088 342.713 559.438 342.231 562.507 341.124Z" fill="#FF005C"/>
<g filter="url(#filter0_i)">
<path fill-rule="evenodd" clip-rule="evenodd" d="M422.14 115.227C404.913 109.576 385.591 105.62 368.234 108.816C365.09 109.395 361.168 109.91 355.94 110.59L355.749 110.615C334.714 113.35 300.842 117.754 261.357 137.292C211.62 161.903 154.691 209.201 95.1787 301.921C48.4373 374.745 25.1396 427.573 15.8611 465.075C11.2261 483.809 9.76364 500.003 11.4855 513.573C13.0912 526.229 18.0983 540.609 30.4189 549.754C53.8284 567.972 93.5479 594.106 138.709 614.984C183.454 635.669 237.26 652.954 287.125 648.876C369.454 642.142 425.084 652.174 439.864 656.755L440.684 657.009L441.518 657.214C474.333 665.262 527.601 674.266 582.441 675.506C636.066 676.717 696.897 670.706 740.482 643.898C776.824 621.545 797.842 608.204 810.116 600.297C812.939 598.479 815.299 596.948 817.26 595.672C818.716 597.04 820.145 598.41 821.523 599.76C824.904 603.073 827.648 605.949 829.646 608.184C831.278 610.009 832.065 611.025 832.317 611.349C832.414 611.474 832.431 611.496 832.385 611.421C845.519 633.064 878.18 628.225 884.53 603.796C884.55 603.745 884.584 603.662 884.635 603.548C884.792 603.196 885.044 602.7 885.399 602.13C886.139 600.941 887.053 599.861 887.99 599.097C888.802 598.435 889.367 598.198 889.826 598.091C890.241 597.994 891.43 597.795 893.832 598.453C911.588 603.314 929.247 590.383 929.975 571.988C931.996 520.872 905.181 409.653 787.808 345.963C753.599 327.401 727.531 313.866 706.794 303.1C676.269 287.251 658.085 277.785 642.093 267.139C626.42 256.706 612.52 244.901 591.319 224.138C559.649 193.124 518.307 162.843 479.327 141.13C459.812 130.26 440.209 121.154 422.14 115.227ZM378.597 165.091C381.668 164.526 389.868 164.862 404.305 169.598C417.888 174.054 434.06 181.415 451.481 191.119C486.371 210.554 523.536 237.85 551.282 265.022C574.564 287.822 591.598 302.278 611.04 315.176C630.017 327.765 650.98 338.644 681.301 354.378L682.072 354.778C702.685 365.475 727.951 378.587 760.517 396.258C836.064 437.252 863.589 501.939 870.785 544.115C864.826 546.183 859.491 549.078 854.818 552.453C848.912 546.973 842.664 541.545 836.966 537.027C833.065 533.935 828.867 530.825 824.902 528.38C822.965 527.185 820.399 525.721 817.51 524.515L817.467 524.497C815.654 523.74 808.87 520.907 800.376 522.063C795.137 522.775 788.026 525.215 782.278 531.642C776.696 537.882 775.129 544.842 774.805 549.393C774.666 551.341 774.726 553.192 774.908 554.903C762.545 562.823 742.631 575.396 710.503 595.158C681.676 612.889 635.038 619.458 583.734 618.298C534.08 617.176 485.385 608.991 455.902 601.823C431.836 594.599 369.069 584.76 282.461 591.844C247.331 594.718 204.387 582.306 162.721 563.044C123.673 544.991 89.0166 522.463 68.2962 506.699C68.2814 506.595 68.2668 506.485 68.2522 506.371C67.7028 502.041 67.8227 493.31 71.4081 478.818C78.5702 449.87 98.2638 403.05 143.335 332.83C198.586 246.748 248.3 207.597 286.734 188.579C317.172 173.518 341.647 170.244 362.03 167.551L362.284 167.517C367.788 166.79 373.388 166.051 378.597 165.091Z" fill="#FF005C"/>
</g>
<path fill-rule="evenodd" clip-rule="evenodd" d="M313.639 238.864C311.891 251.088 301.076 259.735 289.098 258.486C274.022 256.915 261.781 264.871 251.049 281.854C240.162 299.082 233.888 321.53 231.715 336.835C229.483 352.548 212.82 361.316 199.083 354.005C176.547 342.011 163.557 316.169 156.358 291.312C148.815 265.264 145.894 234.467 147.539 204.761C149.176 175.19 155.444 144.852 167.761 120.363C180.075 95.8809 200.231 74.1802 230.2 69.9406C252.666 66.7624 271.78 73.3106 286.056 87.4552C299.351 100.628 306.725 118.652 310.939 135.891C319.379 170.407 317.519 211.725 313.639 238.864ZM486.325 201.221C477.344 205.445 468.843 203.678 463.877 201.769C462.427 201.211 461.036 200.501 459.728 199.65C456.106 197.295 452.638 195.014 449.281 192.807C428.171 178.924 411.428 167.914 388.147 159.184C375.705 154.518 369.863 139.89 375.535 127.607C384.763 107.621 399.363 77.6292 413.367 52.8154C420.301 40.5287 427.509 28.7558 434.137 20.009C437.365 15.7475 441.185 11.22 445.403 7.68894C447.517 5.91946 450.496 3.7461 454.228 2.16864C457.971 0.5871 463.923 -0.98385 470.83 0.774044C479.681 3.02671 486.92 8.55759 491.316 16.4801C495.267 23.6009 495.997 30.9559 495.913 36.2382C495.761 45.8063 492.818 54.9766 490.287 60.9058C488.341 67.6336 484.597 93.6627 495.91 129.308C499.424 140.378 501.696 149.748 502.833 157.674C503.93 165.32 504.195 173.087 502.486 180.24C500.681 187.797 496.037 196.652 486.325 201.221ZM459.787 25.4519C443.863 38.5364 411.846 102.903 395.872 137.494C398.718 131.331 402.074 124.222 405.757 116.627C419.392 88.5058 437.518 53.7127 450.908 35.5163C454.198 31.0458 457.205 27.5728 459.787 25.4519Z" fill="#EE0056"/>
<defs>
<filter id="filter0_i" x="-6.10352e-05" y="79.7783" width="964.199" height="654.438" filterUnits="userSpaceOnUse" color-interpolation-filters="sRGB">
<feFlood flood-opacity="0" result="BackgroundImageFix"/>
<feBlend mode="normal" in="SourceGraphic" in2="BackgroundImageFix" result="shape"/>
<feColorMatrix in="SourceAlpha" type="matrix" values="0 0 0 0 0 0 0 0 0 0 0 0 0 0 0 0 0 0 127 0" result="hardAlpha"/>
<feOffset dy="30"/>
<feGaussianBlur stdDeviation="20"/>
<feComposite in2="hardAlpha" operator="arithmetic" k2="-1" k3="1"/>
<feColorMatrix type="matrix" values="0 0 0 0 0 0 0 0 0 0 0 0 0 0 0 0 0 0 0.07 0"/>
<feBlend mode="normal" in2="shape" result="effect1_innerShadow"/>
</filter>
</defs>
</svg>
